<mxfile host="app.diagrams.net" agent="Mozilla/5.0 (Windows NT 10.0; Win64; x64) AppleWebKit/537.36 (KHTML, like Gecko) Chrome/135.0.0.0 Safari/537.36 Edg/135.0.0.0" version="26.2.12">
  <diagram name="第 1 页" id="-kmWdyyDB_Sm5dJqCYHI">
    <mxGraphModel dx="2195" dy="1491" grid="1" gridSize="10" guides="1" tooltips="1" connect="1" arrows="1" fold="1" page="1" pageScale="1" pageWidth="827" pageHeight="1169" math="0" shadow="0">
      <root>
        <mxCell id="0" />
        <mxCell id="1" parent="0" />
        <mxCell id="dvGmOYl7uHzg3A0H9K7k-64" value="" style="rounded=1;arcSize=5;whiteSpace=wrap;html=1;fillColor=#fff2cc;strokeColor=light-dark(#6D5100,#000000);strokeWidth=2;dashed=1;dashPattern=8 8;movable=1;resizable=1;rotatable=1;deletable=1;editable=1;locked=0;connectable=1;" vertex="1" parent="1">
          <mxGeometry x="509" y="960" width="110" height="175" as="geometry" />
        </mxCell>
        <mxCell id="dvGmOYl7uHzg3A0H9K7k-65" value="" style="rounded=1;arcSize=5;whiteSpace=wrap;html=1;fillColor=#d5e8d4;strokeColor=light-dark(#517f31, #446e2c);strokeWidth=2;dashed=1;dashPattern=8 8;movable=1;resizable=1;rotatable=1;deletable=1;editable=1;locked=0;connectable=1;" vertex="1" parent="1">
          <mxGeometry x="132" y="960" width="368" height="175" as="geometry" />
        </mxCell>
        <mxCell id="dvGmOYl7uHzg3A0H9K7k-68" value="" style="group;strokeWidth=24;movable=1;resizable=1;rotatable=1;deletable=1;editable=1;locked=0;connectable=1;" vertex="1" connectable="0" parent="1">
          <mxGeometry x="146" y="1013.1600000000001" width="117.0047776127821" height="109.683573999841" as="geometry" />
        </mxCell>
        <mxCell id="dvGmOYl7uHzg3A0H9K7k-69" value="&lt;span style=&quot;color: rgba(0, 0, 0, 0); font-family: monospace; font-size: 0px; text-align: start;&quot;&gt;%3CmxGraphModel%3E%3Croot%3E%3CmxCell%20id%3D%220%22%2F%3E%3CmxCell%20id%3D%221%22%20parent%3D%220%22%2F%3E%3CmxCell%20id%3D%222%22%20value%3D%22%26lt%3Bb%26gt%3BEnv.%20Prompt%26lt%3B%2Fb%26gt%3B%22%20style%3D%22text%3Bhtml%3D1%3Balign%3Dcenter%3BverticalAlign%3Dmiddle%3Bresizable%3D0%3Bpoints%3D%5B%5D%3Bautosize%3D1%3BstrokeColor%3Dnone%3BfillColor%3Dnone%3B%22%20vertex%3D%221%22%20parent%3D%221%22%3E%3CmxGeometry%20x%3D%22235%22%20y%3D%22265%22%20width%3D%2290%22%20height%3D%2230%22%20as%3D%22geometry%22%2F%3E%3C%2FmxCell%3E%3C%2Froot%3E%3C%2FmxGraphModel%3E&lt;/span&gt;" style="text;html=1;align=center;verticalAlign=middle;resizable=1;points=[];autosize=1;strokeColor=none;fillColor=none;fontStyle=4;movable=1;rotatable=1;deletable=1;editable=1;locked=0;connectable=1;" vertex="1" parent="dvGmOYl7uHzg3A0H9K7k-68">
          <mxGeometry x="32.43456943289952" y="70.99090233733783" width="20" height="30" as="geometry" />
        </mxCell>
        <mxCell id="dvGmOYl7uHzg3A0H9K7k-70" value="&lt;b&gt;&lt;font style=&quot;font-size: 10px;&quot; face=&quot;Times New Roman&quot;&gt;行为目标提示（Prompt）&lt;/font&gt;&lt;/b&gt;" style="text;html=1;align=center;verticalAlign=middle;resizable=1;points=[];autosize=1;strokeColor=none;fillColor=none;movable=1;rotatable=1;deletable=1;editable=1;locked=0;connectable=1;" vertex="1" parent="dvGmOYl7uHzg3A0H9K7k-68">
          <mxGeometry x="-13.99522238721789" y="83.683573999841" width="131" height="26" as="geometry" />
        </mxCell>
        <mxCell id="dvGmOYl7uHzg3A0H9K7k-71" value="&lt;div style=&quot;color: rgb(51, 51, 51);&quot;&gt;&lt;span style=&quot;background-color: transparent; color: light-dark(rgb(51, 51, 51), rgb(193, 193, 193));&quot;&gt;&lt;font style=&quot;font-size: 10px;&quot; face=&quot;Times New Roman&quot;&gt;&amp;nbsp; Object List:&lt;/font&gt;&lt;/span&gt;&lt;/div&gt;&lt;div style=&quot;color: rgb(51, 51, 51);&quot;&gt;&lt;font style=&quot;font-size: 10px;&quot; face=&quot;Times New Roman&quot;&gt;&amp;nbsp; Action history:&lt;/font&gt;&lt;/div&gt;&lt;div style=&quot;color: rgb(51, 51, 51);&quot;&gt;&lt;font style=&quot;font-size: 10px;&quot; face=&quot;Times New Roman&quot;&gt;&amp;nbsp;&amp;nbsp;&lt;/font&gt;&lt;/div&gt;" style="strokeWidth=1.5;html=1;shape=mxgraph.flowchart.multi-document;whiteSpace=wrap;align=left;fillColor=light-dark(#e7e6e6, #ededed);movable=1;resizable=1;rotatable=1;deletable=1;editable=1;locked=0;connectable=1;" vertex="1" parent="dvGmOYl7uHzg3A0H9K7k-68">
          <mxGeometry x="-3.599880783211925" y="5.2822173063076505" width="103.59656920576539" height="76.40155547164571" as="geometry" />
        </mxCell>
        <mxCell id="dvGmOYl7uHzg3A0H9K7k-81" value="&lt;font face=&quot;Times New Roman&quot;&gt;&lt;span style=&quot;font-size: 15px;&quot;&gt;目标预测模块&lt;/span&gt;&lt;/font&gt;" style="text;html=1;align=center;verticalAlign=middle;resizable=1;points=[];autosize=1;strokeColor=none;fillColor=none;fontColor=light-dark(#548235, #69c195);fontStyle=1;movable=1;rotatable=1;deletable=1;editable=1;locked=0;connectable=1;" vertex="1" parent="1">
          <mxGeometry x="130" y="960" width="108" height="30" as="geometry" />
        </mxCell>
        <mxCell id="dvGmOYl7uHzg3A0H9K7k-87" value="" style="group;movable=1;resizable=1;rotatable=1;deletable=1;editable=1;locked=0;connectable=1;" vertex="1" connectable="0" parent="1">
          <mxGeometry x="399.99714285714276" y="1033" width="100" height="93.00037037037032" as="geometry" />
        </mxCell>
        <mxCell id="dvGmOYl7uHzg3A0H9K7k-88" value="" style="html=1;verticalLabelPosition=bottom;align=center;labelBackgroundColor=#ffffff;verticalAlign=top;strokeWidth=4;strokeColor=light-dark(#548235, #32a0ff);shadow=0;dashed=0;shape=mxgraph.ios7.icons.pie_chart;fillColor=light-dark(#d5e8d4, #ededed);fontStyle=0;movable=1;resizable=1;rotatable=1;deletable=1;editable=1;locked=0;connectable=1;" vertex="1" parent="dvGmOYl7uHzg3A0H9K7k-87">
          <mxGeometry x="25.002857142857234" width="50" height="50" as="geometry" />
        </mxCell>
        <mxCell id="dvGmOYl7uHzg3A0H9K7k-89" value="&lt;b&gt;&lt;font style=&quot;font-size: 10px;&quot; face=&quot;Times New Roman&quot;&gt;交互物体&lt;/font&gt;&lt;/b&gt;&lt;div&gt;&lt;b&gt;&lt;font style=&quot;font-size: 10px;&quot; face=&quot;Times New Roman&quot;&gt;概率列表&lt;/font&gt;&lt;/b&gt;&lt;/div&gt;" style="text;html=1;align=center;verticalAlign=middle;resizable=1;points=[];autosize=1;strokeColor=none;fillColor=none;fontStyle=0;movable=1;rotatable=1;deletable=1;editable=1;locked=0;connectable=1;" vertex="1" parent="dvGmOYl7uHzg3A0H9K7k-87">
          <mxGeometry x="21" y="54.50037037037032" width="58" height="41" as="geometry" />
        </mxCell>
        <mxCell id="dvGmOYl7uHzg3A0H9K7k-90" value="" style="html=1;verticalLabelPosition=bottom;align=center;labelBackgroundColor=#ffffff;verticalAlign=top;strokeWidth=3;strokeColor=light-dark(#b67a58, #32a0ff);shadow=0;dashed=0;shape=mxgraph.ios7.icons.keypad;fillColor=none;aspect=fixed;movable=1;resizable=1;rotatable=1;deletable=1;editable=1;locked=0;connectable=1;" vertex="1" parent="1">
          <mxGeometry x="544" y="1066" width="40" height="40" as="geometry" />
        </mxCell>
        <mxCell id="dvGmOYl7uHzg3A0H9K7k-91" value="&lt;font style=&quot;color: light-dark(rgb(109, 81, 0), rgb(237, 237, 237));&quot;&gt;&lt;b style=&quot;&quot;&gt;用&lt;/b&gt;&lt;/font&gt;&lt;div&gt;&lt;font style=&quot;color: light-dark(rgb(109, 81, 0), rgb(237, 237, 237));&quot;&gt;&lt;b&gt;户&lt;/b&gt;&lt;/font&gt;&lt;/div&gt;&lt;div&gt;&lt;font style=&quot;color: light-dark(rgb(109, 81, 0), rgb(237, 237, 237));&quot;&gt;&lt;b&gt;行&lt;/b&gt;&lt;/font&gt;&lt;/div&gt;&lt;div&gt;&lt;font style=&quot;color: light-dark(rgb(109, 81, 0), rgb(237, 237, 237));&quot;&gt;&lt;b&gt;为&lt;/b&gt;&lt;/font&gt;&lt;/div&gt;&lt;div&gt;&lt;font style=&quot;color: light-dark(rgb(109, 81, 0), rgb(237, 237, 237));&quot;&gt;&lt;b&gt;目&lt;/b&gt;&lt;/font&gt;&lt;/div&gt;&lt;div&gt;&lt;font style=&quot;color: light-dark(rgb(109, 81, 0), rgb(237, 237, 237));&quot;&gt;&lt;b style=&quot;&quot;&gt;标&lt;/b&gt;&lt;/font&gt;&lt;/div&gt;" style="rounded=1;arcSize=5;whiteSpace=wrap;html=1;fillColor=#fff2cc;strokeColor=light-dark(#6D5100,#000000);strokeWidth=2;align=center;verticalAlign=middle;fontFamily=Helvetica;fontSize=12;fontColor=default;movable=1;resizable=1;rotatable=1;deletable=1;editable=1;locked=0;connectable=1;" vertex="1" parent="1">
          <mxGeometry x="640" y="1042" width="35" height="92" as="geometry" />
        </mxCell>
        <mxCell id="dvGmOYl7uHzg3A0H9K7k-92" value="&lt;b&gt;&lt;font style=&quot;font-size: 10px;&quot;&gt;转移方程&lt;/font&gt;&lt;/b&gt;" style="text;html=1;align=center;verticalAlign=middle;whiteSpace=wrap;rounded=0;movable=1;resizable=1;rotatable=1;deletable=1;editable=1;locked=0;connectable=1;" vertex="1" parent="1">
          <mxGeometry x="534" y="1103" width="60" height="30" as="geometry" />
        </mxCell>
        <mxCell id="dvGmOYl7uHzg3A0H9K7k-93" value="" style="shape=flexArrow;endArrow=classic;html=1;rounded=0;fillColor=light-dark(#517f31, #2566a8);strokeColor=light-dark(#517f31, #ededed);endWidth=8.045977011494253;endSize=4.83448275862069;movable=1;resizable=1;rotatable=1;deletable=1;editable=1;locked=0;connectable=1;" edge="1" parent="1">
          <mxGeometry width="50" height="50" relative="1" as="geometry">
            <mxPoint x="483" y="1057" as="sourcePoint" />
            <mxPoint x="523" y="1057.2" as="targetPoint" />
            <Array as="points">
              <mxPoint x="483" y="1057.2" />
            </Array>
          </mxGeometry>
        </mxCell>
        <mxCell id="dvGmOYl7uHzg3A0H9K7k-94" value="&lt;font face=&quot;Times New Roman&quot;&gt;&lt;span style=&quot;font-size: 15px;&quot;&gt;动态迭代模块&lt;/span&gt;&lt;/font&gt;" style="text;html=1;align=center;verticalAlign=middle;resizable=1;points=[];autosize=1;strokeColor=none;fillColor=none;fontColor=light-dark(#7f6105, #69c195);fontStyle=1;movable=1;rotatable=1;deletable=1;editable=1;locked=0;connectable=1;" vertex="1" parent="1">
          <mxGeometry x="508.13" y="958" width="110" height="30" as="geometry" />
        </mxCell>
        <mxCell id="dvGmOYl7uHzg3A0H9K7k-95" value="" style="html=1;verticalLabelPosition=bottom;align=center;labelBackgroundColor=#ffffff;verticalAlign=top;strokeWidth=2;strokeColor=light-dark(#b67a58, #32a0ff);shadow=0;dashed=0;shape=mxgraph.ios7.icons.volume;pointerEvents=1;fillColor=light-dark(#fff2cc, #ededed);aspect=fixed;movable=1;resizable=1;rotatable=1;deletable=1;editable=1;locked=0;connectable=1;" vertex="1" parent="1">
          <mxGeometry x="544" y="985" width="40" height="40" as="geometry" />
        </mxCell>
        <mxCell id="dvGmOYl7uHzg3A0H9K7k-96" value="" style="group;movable=1;resizable=1;rotatable=1;deletable=1;editable=1;locked=0;connectable=1;" vertex="1" connectable="0" parent="1">
          <mxGeometry x="300.1" y="1007.3199999999999" width="108.89999999999998" height="121.37013422818792" as="geometry" />
        </mxCell>
        <mxCell id="dvGmOYl7uHzg3A0H9K7k-97" value="" style="group;movable=1;resizable=1;rotatable=1;deletable=1;editable=1;locked=0;connectable=1;" vertex="1" connectable="0" parent="dvGmOYl7uHzg3A0H9K7k-96">
          <mxGeometry width="108.89999999999998" height="121.37013422818792" as="geometry" />
        </mxCell>
        <mxCell id="dvGmOYl7uHzg3A0H9K7k-98" value="" style="group;fontStyle=0;strokeWidth=2;movable=1;resizable=1;rotatable=1;deletable=1;editable=1;locked=0;connectable=1;" vertex="1" connectable="0" parent="dvGmOYl7uHzg3A0H9K7k-97">
          <mxGeometry width="108.89999999999998" height="121.37013422818792" as="geometry" />
        </mxCell>
        <mxCell id="dvGmOYl7uHzg3A0H9K7k-99" value="&lt;b&gt;&lt;font style=&quot;font-size: 10px;&quot; face=&quot;Times New Roman&quot;&gt;轻量大语言模型&lt;/font&gt;&lt;/b&gt;&lt;div&gt;&lt;b&gt;&lt;font style=&quot;font-size: 10px;&quot; face=&quot;Times New Roman&quot;&gt;GPT-4o-mini&lt;/font&gt;&lt;/b&gt;&lt;/div&gt;" style="text;html=1;align=center;verticalAlign=middle;resizable=1;points=[];autosize=1;strokeColor=none;fillColor=none;movable=1;rotatable=1;deletable=1;editable=1;locked=0;connectable=1;" vertex="1" parent="dvGmOYl7uHzg3A0H9K7k-98">
          <mxGeometry x="-0.6295410212277694" y="80.37013422818792" width="88" height="41" as="geometry" />
        </mxCell>
        <mxCell id="dvGmOYl7uHzg3A0H9K7k-100" style="edgeStyle=orthogonalEdgeStyle;rounded=1;orthogonalLoop=1;jettySize=auto;html=1;fillColor=#1ba1e2;strokeColor=light-dark(#385723, #28ab6a);curved=0;strokeWidth=2;movable=1;resizable=1;rotatable=1;deletable=1;editable=1;locked=0;connectable=1;" edge="1" parent="dvGmOYl7uHzg3A0H9K7k-98">
          <mxGeometry relative="1" as="geometry">
            <mxPoint x="80.89999999999998" y="53.710000000000036" as="sourcePoint" />
            <mxPoint x="116.89999999999998" y="53.710000000000036" as="targetPoint" />
            <Array as="points">
              <mxPoint x="117.26999999999998" y="53.92000000000007" />
              <mxPoint x="117.26999999999998" y="53.92000000000007" />
            </Array>
          </mxGeometry>
        </mxCell>
        <mxCell id="dvGmOYl7uHzg3A0H9K7k-101" value="" style="shape=image;html=1;verticalAlign=top;verticalLabelPosition=bottom;labelBackgroundColor=#ffffff;imageAspect=0;aspect=fixed;image=https://cdn0.iconfinder.com/data/icons/phosphor-light-vol-1/256/brain-light-128.png;imageBackground=none;imageBorder=none;movable=1;resizable=1;rotatable=1;deletable=1;editable=1;locked=0;connectable=1;" vertex="1" parent="dvGmOYl7uHzg3A0H9K7k-96">
          <mxGeometry x="10" y="17.37" width="67.06" height="67.06" as="geometry" />
        </mxCell>
        <mxCell id="dvGmOYl7uHzg3A0H9K7k-102" style="edgeStyle=orthogonalEdgeStyle;rounded=1;orthogonalLoop=1;jettySize=auto;html=1;fillColor=#1ba1e2;strokeColor=light-dark(#446230, #28ab6a);curved=0;strokeWidth=2;movable=1;resizable=1;rotatable=1;deletable=1;editable=1;locked=0;connectable=1;" edge="1" parent="1">
          <mxGeometry relative="1" as="geometry">
            <mxPoint x="257.5" y="1060" as="sourcePoint" />
            <mxPoint x="302.5" y="1060" as="targetPoint" />
          </mxGeometry>
        </mxCell>
        <mxCell id="dvGmOYl7uHzg3A0H9K7k-103" value="&lt;b&gt;&lt;font style=&quot;font-size: 10px;&quot;&gt;动态特征&lt;/font&gt;&lt;/b&gt;" style="text;html=1;align=center;verticalAlign=middle;whiteSpace=wrap;rounded=0;movable=1;resizable=1;rotatable=1;deletable=1;editable=1;locked=0;connectable=1;" vertex="1" parent="1">
          <mxGeometry x="533.13" y="1018" width="60" height="30" as="geometry" />
        </mxCell>
        <mxCell id="dvGmOYl7uHzg3A0H9K7k-104" style="edgeStyle=orthogonalEdgeStyle;rounded=1;orthogonalLoop=1;jettySize=auto;html=1;fillColor=#1ba1e2;strokeColor=light-dark(#b67b58, #28ab6a);curved=0;horizontal=1;strokeWidth=2;movable=1;resizable=1;rotatable=1;deletable=1;editable=1;locked=0;connectable=1;" edge="1" parent="1">
          <mxGeometry relative="1" as="geometry">
            <mxPoint x="564" y="1040" as="sourcePoint" />
            <mxPoint x="563.8299999999999" y="1060" as="targetPoint" />
            <Array as="points" />
          </mxGeometry>
        </mxCell>
        <mxCell id="dvGmOYl7uHzg3A0H9K7k-105" value="" style="shape=flexArrow;endArrow=classic;html=1;rounded=0;fillColor=light-dark(#b67a58, #36210a);strokeColor=light-dark(#b67a58, #996500);endWidth=8.045977011494253;endSize=4.83448275862069;movable=1;resizable=1;rotatable=1;deletable=1;editable=1;locked=0;connectable=1;" edge="1" parent="1">
          <mxGeometry width="50" height="50" relative="1" as="geometry">
            <mxPoint x="589" y="1089.995311326033" as="sourcePoint" />
            <mxPoint x="639" y="1089.995311326033" as="targetPoint" />
            <Array as="points">
              <mxPoint x="599" y="1089.995311326033" />
            </Array>
          </mxGeometry>
        </mxCell>
        <mxCell id="dvGmOYl7uHzg3A0H9K7k-115" value="" style="shape=actor;whiteSpace=wrap;html=1;strokeWidth=1;movable=1;resizable=1;rotatable=1;deletable=1;editable=1;locked=0;connectable=1;" vertex="1" parent="1">
          <mxGeometry x="40" y="962" width="26" height="35" as="geometry" />
        </mxCell>
        <mxCell id="dvGmOYl7uHzg3A0H9K7k-116" value="&lt;font style=&quot;font-size: 10px;&quot; face=&quot;Times New Roman&quot;&gt;I&#39;m sleepy&lt;/font&gt;" style="whiteSpace=wrap;html=1;shape=mxgraph.basic.roundRectCallout;dx=29.74;dy=11;size=5;boundedLbl=1;strokeWidth=1;movable=1;resizable=1;rotatable=1;deletable=1;editable=1;locked=0;connectable=1;" vertex="1" parent="1">
          <mxGeometry x="69" y="961" width="54" height="36" as="geometry" />
        </mxCell>
        <mxCell id="dvGmOYl7uHzg3A0H9K7k-117" value="&lt;font style=&quot;font-size: 10px;&quot;&gt;&lt;b&gt;用户对话&lt;/b&gt;&lt;/font&gt;" style="text;html=1;align=center;verticalAlign=middle;resizable=1;points=[];autosize=1;strokeColor=none;fillColor=none;movable=1;rotatable=1;deletable=1;editable=1;locked=0;connectable=1;" vertex="1" parent="1">
          <mxGeometry x="47" y="992" width="58" height="26" as="geometry" />
        </mxCell>
        <mxCell id="dvGmOYl7uHzg3A0H9K7k-124" value="" style="shape=flexArrow;endArrow=classic;html=1;rounded=0;fillColor=#f5f5f5;strokeColor=#666666;movable=1;resizable=1;rotatable=1;deletable=1;editable=1;locked=0;connectable=1;" edge="1" parent="1">
          <mxGeometry width="50" height="50" relative="1" as="geometry">
            <mxPoint x="98" y="1004.7" as="sourcePoint" />
            <mxPoint x="158" y="1004.7" as="targetPoint" />
          </mxGeometry>
        </mxCell>
      </root>
    </mxGraphModel>
  </diagram>
</mxfile>
